<svg id="Layer_1" data-name="Layer 1" xmlns="http://www.w3.org/2000/svg" viewBox="0 0 549.58 108.78"><defs><style>.cls-1{fill:#ef6800;}</style></defs><title>crescendo</title><path class="cls-1" d="M195.35,21A1.81,1.81,0,0,0,193,20c-4.16,1.57-7.58,7.57-10.77,18.88-2.64,9.39-4.79,21.11-6.86,32.43-.54,2.95-1,5.73-1.57,8.49q-.56,2.88-1.06,5.69c-2,11-4,21.41-6.69,28.69-3.64,9.71-7.68,10.83-10.4,10.83a6.25,6.25,0,0,1-3.54-1,29.87,29.87,0,0,0,4.6-8.56c2.85-7.57,4.8-18.12,6.86-29.3l1.06-5.68c.52-2.77,1.05-5.68,1.57-8.5,2.06-11.24,4.19-22.87,6.79-32.1,1.91-6.76,4.93-15.1,8.55-16.46A1.82,1.82,0,0,0,180.26,20c-4.16,1.57-7.58,7.57-10.76,18.88-2.65,9.39-4.8,21.11-6.87,32.43-.54,2.95-1,5.73-1.57,8.49-.36,1.92-.72,3.82-1.06,5.69-2,11-4,21.41-6.69,28.69a26.45,26.45,0,0,1-3.93,7.41,30.91,30.91,0,0,1-4.4-7.22c-.12-.25-.23-.51-.35-.77,2.5-7.4,4.3-17.16,6.2-27.45l1.06-5.68c.52-2.77,1.05-5.68,1.57-8.5,2.06-11.24,4.19-22.87,6.79-32.1,1.91-6.76,4.93-15.1,8.55-16.46A1.82,1.82,0,1,0,167.51,20c-4.16,1.57-7.58,7.57-10.76,18.88C154.1,48.25,152,60,149.88,71.29c-.54,2.95-1,5.73-1.57,8.49q-.54,2.88-1.06,5.69c-1.53,8.25-3,16.16-4.77,22.67-2.27-6.31-4.28-13.77-6.18-21-.7-2.69-1.39-5.45-2.06-8.11-2.4-9.61-4.68-18.68-7.6-25.61-2.24-5.3-6-12.34-12.66-12.34a10,10,0,0,0-6.53,2.41,9.47,9.47,0,0,0-6.22-2.41,10,10,0,0,0-6.53,2.41,9.47,9.47,0,0,0-6.22-2.41c-5.06,0-9.14,3.58-12.48,11-2.76,6.11-4.75,14-6.86,22.34-.5,2-1,4-1.53,6a87,87,0,0,1-5,15c-3.28-5.11-5.84-11.89-8.13-18.93A1.82,1.82,0,1,0,51,77.5C53.09,83.89,56,92,60,98l.6.85a13,13,0,0,1-3.7,3.72c-7.06-4-11.48-14.76-15.19-26.17a1.82,1.82,0,1,0-3.46,1.13c2.08,6.39,5,14.49,9,20.47a26.79,26.79,0,0,0,5.46,6.09,15.34,15.34,0,0,1-2.29.16c-10.91,0-16.77-13.38-21.46-27.85a1.82,1.82,0,0,0-3.47,1.13c2.08,6.39,5,14.49,9,20.47,4.42,6.57,9.78,9.89,15.92,9.89A16.37,16.37,0,0,0,57,106.63a15.9,15.9,0,0,0,6.19,1.23,16.37,16.37,0,0,0,6.56-1.23,15.9,15.9,0,0,0,6.19,1.23c11.63,0,16.09-9,20.69-26.62.52-2,1-4,1.54-6,.93-3.71,1.88-7.45,2.89-11,1.47,4.9,2.82,10.29,4.15,15.63.67,2.67,1.37,5.43,2.07,8.14,6,23,11.5,40.61,22.88,40.61a11,11,0,0,0,6.49-2.08,10.5,10.5,0,0,0,6.26,2.08,11,11,0,0,0,6.49-2.08,10.5,10.5,0,0,0,6.26,2.08,11.33,11.33,0,0,0,8.45-3.8,27.36,27.36,0,0,0,5.36-9.41c2.84-7.57,4.79-18.12,6.86-29.3q.51-2.8,1.06-5.68c.52-2.77,1.05-5.68,1.57-8.5,2.06-11.24,4.19-22.87,6.79-32.1,1.9-6.76,4.93-15.1,8.54-16.46A1.81,1.81,0,0,0,195.35,21ZM130.71,79.89c.67,2.67,1.36,5.43,2.07,8.14,2.58,9.87,5.06,18.75,7.95,25.66,0,.16-.11.31-.16.47a26.69,26.69,0,0,1-3.94,7.41,30.91,30.91,0,0,1-4.4-7.22c-3.33-7.21-6.11-17.41-8.67-27.24-.71-2.69-1.4-5.45-2.06-8.11-2.41-9.61-4.69-18.68-7.61-25.61a35.41,35.41,0,0,0-4-7.25,6.58,6.58,0,0,1,4-1.45C121.89,44.69,126.37,62.58,130.71,79.89ZM104.92,46.11A29.72,29.72,0,0,0,101.5,52L101,53.11a34.49,34.49,0,0,0-3.83-7,6.58,6.58,0,0,1,4-1.45A5.81,5.81,0,0,1,104.92,46.11ZM71.13,81.24c.52-2,1-4,1.54-6,3.8-15,7.72-30.54,15.81-30.54a5.81,5.81,0,0,1,3.69,1.42A29.72,29.72,0,0,0,88.75,52C86,58.11,84,66,81.89,74.34c-.5,2-1,4-1.54,6C77,93.18,74,99.76,69.66,102.54a18,18,0,0,1-4.64-4C67.37,94.29,69.24,88.5,71.13,81.24Zm-7.94,23A13.51,13.51,0,0,1,61,104a17.39,17.39,0,0,0,2-2.28,23.12,23.12,0,0,0,2.48,2.31A15.34,15.34,0,0,1,63.19,104.22ZM94.64,74.34c-.5,2-1,4-1.54,6-4.77,18.32-8.78,23.9-17.16,23.9a13.51,13.51,0,0,1-2.23-.19c4.51-4.2,7.31-11.81,10.17-22.79.52-2,1-4,1.54-6C88,65,90.66,54.49,94.66,48.87a41.6,41.6,0,0,1,4.44,9.36C97.48,63.09,96.09,68.61,94.64,74.34Zm24.84,40c-3.32-7.21-6.11-17.41-8.67-27.24-.7-2.69-1.4-5.45-2.06-8.11-1.89-7.51-3.69-14.7-5.78-20.79a38.39,38.39,0,0,1,4.44-9.34c4.36,6.3,7.49,18.81,10.55,31,.67,2.67,1.37,5.43,2.07,8.14,4.16,15.94,8.08,29.28,13.87,36a7,7,0,0,1-3.74,1C128.74,125,124.4,125,119.48,114.35ZM139.37,124a25.74,25.74,0,0,0,3.46-5.78,30.59,30.59,0,0,0,3.82,5.79,7,7,0,0,1-3.74,1A6.25,6.25,0,0,1,139.37,124Z" transform="translate(-25.42 -19.86)"/><path class="cls-1" d="M466.56,62.26a18.42,18.42,0,0,0-10.77,3.46V63.34h-7.65V78.93c-.06.6-.09,1.22-.09,1.84v21h7.83v-21a10.68,10.68,0,1,1,21.36,0v21h7.83v-21A18.53,18.53,0,0,0,466.56,62.26Z" transform="translate(-25.42 -19.86)"/><path class="cls-1" d="M275.3,66.6V63.68h-7.65v38.24h7.65V81.53a10.78,10.78,0,0,1,10.77-10.77h3.83V63.11h-3.83A18.26,18.26,0,0,0,275.3,66.6Z" transform="translate(-25.42 -19.86)"/><path class="cls-1" d="M554.78,62.23A20.22,20.22,0,1,0,575,82.45,20.24,20.24,0,0,0,554.78,62.23Zm0,32.79a12.58,12.58,0,1,1,12.57-12.57A12.59,12.59,0,0,1,554.78,95Z" transform="translate(-25.42 -19.86)"/><path class="cls-1" d="M358.8,81.18a46.77,46.77,0,0,0-6.71-2.09c-2-.51-3.52-1-4.65-1.37a7.48,7.48,0,0,1-2.67-1.56,3.08,3.08,0,0,1-1-2.38,4.06,4.06,0,0,1,1.77-3.45c1.21-.89,3.13-1.34,5.69-1.34a17.29,17.29,0,0,1,4.91.75A20.15,20.15,0,0,1,361,72l.47.29,2.44-6.4-.28-.2A18,18,0,0,0,358,63a25.17,25.17,0,0,0-6.67-.9A19.59,19.59,0,0,0,343,63.72a11.76,11.76,0,0,0-5.13,4.33,11.31,11.31,0,0,0-1.7,6.06,9.67,9.67,0,0,0,1.94,6.33,11.6,11.6,0,0,0,4.6,3.41A52.28,52.28,0,0,0,349.52,86c2,.51,3.52,1,4.64,1.37a7.36,7.36,0,0,1,2.68,1.58,3.19,3.19,0,0,1,1,2.41A3.78,3.78,0,0,1,356,94.61a10.41,10.41,0,0,1-5.8,1.3,18.55,18.55,0,0,1-6.38-1.16,17.71,17.71,0,0,1-5.35-3l-.46-.39-2.68,6.38,0,0,.23.22a17.23,17.23,0,0,0,6.38,3.46,26.75,26.75,0,0,0,8.28,1.29,19.63,19.63,0,0,0,8.3-1.59,11.78,11.78,0,0,0,5.15-4.3,11.18,11.18,0,0,0,1.71-6,9.49,9.49,0,0,0-1.95-6.24A11.91,11.91,0,0,0,358.8,81.18Z" transform="translate(-25.42 -19.86)"/><path class="cls-1" d="M248.45,60.35A17.46,17.46,0,0,1,259.23,64L263.92,58a25.28,25.28,0,0,0-40.74,20,25.27,25.27,0,0,0,40.74,20l-4.69-6a17.46,17.46,0,0,1-10.78,3.69,17.62,17.62,0,1,1,0-35.24Z" transform="translate(-25.42 -19.86)"/><path class="cls-1" d="M389.18,69.9a12.46,12.46,0,0,1,7.7,2.63l4.68-6a20,20,0,0,0-12.38-4.23,20.22,20.22,0,0,0,0,40.44,20,20,0,0,0,12.38-4.23l-4.68-6a12.46,12.46,0,0,1-7.7,2.63,12.57,12.57,0,1,1,0-25.14Z" transform="translate(-25.42 -19.86)"/><path class="cls-1" d="M522.59,66.8a20.23,20.23,0,1,0,0,31.65v3.37h7.65V49.68h-7.65ZM510,95.2a12.57,12.57,0,1,1,12.57-12.57A12.59,12.59,0,0,1,510,95.2Z" transform="translate(-25.42 -19.86)"/><path class="cls-1" d="M311.46,95a12.59,12.59,0,0,1-12-8.75h31.83a20.25,20.25,0,1,0-2.72,6.9l-6.82-3.55A12.58,12.58,0,0,1,311.46,95Zm0-25.15a12.6,12.6,0,0,1,12,8.75H299.49A12.59,12.59,0,0,1,311.46,69.87Z" transform="translate(-25.42 -19.86)"/><path class="cls-1" d="M423.05,62.13a20.32,20.32,0,1,0,17.2,31.09l.06-.08-6.91-3.6-.07,0-.05.06a12.46,12.46,0,0,1-22.08-3.21H443v-.07a19.91,19.91,0,0,0,.37-3.84A20.34,20.34,0,0,0,423.05,62.13ZM411.2,78.53a12.48,12.48,0,0,1,23.7,0Z" transform="translate(-25.42 -19.86)"/><polygon class="cls-1" points="257.36 98.07 261.61 98.07 261.61 96.76 257.36 96.76 257.36 93.31 262.22 93.31 262.22 92.02 255.97 92.02 255.97 102.63 262.38 102.63 262.38 101.33 257.36 101.33 257.36 98.07"/><polygon class="cls-1" points="280.94 98.07 285.19 98.07 285.19 96.76 280.94 96.76 280.94 93.31 285.81 93.31 285.81 92.02 279.56 92.02 279.56 102.63 285.96 102.63 285.96 101.33 280.94 101.33 280.94 98.07"/><path class="cls-1" d="M320.5,111.81h-.86a.46.46,0,0,0-.42.29l-3.92,10.39h1.46l1-2.79h4.56l1,2.79h1.47l-3.93-10.39A.46.46,0,0,0,320.5,111.81Zm-2.25,6.66,1.82-4.82,1.82,4.82Z" transform="translate(-25.42 -19.86)"/><path class="cls-1" d="M347,113a3.93,3.93,0,0,1,3,1.37l1-.86a5.18,5.18,0,0,0-4-1.81,5.49,5.49,0,0,0,0,11,5.17,5.17,0,0,0,4-1.8l-1-.86a3.93,3.93,0,0,1-3,1.37,4.2,4.2,0,0,1,0-8.39Z" transform="translate(-25.42 -19.86)"/><polygon class="cls-1" points="337.21 96.72 332.01 96.72 332.01 92.02 330.61 92.02 330.61 102.63 332.01 102.63 332.01 97.99 337.21 97.99 337.21 102.63 338.61 102.63 338.61 92.02 337.21 92.02 337.21 96.72"/><path class="cls-1" d="M334.94,118.28a4.06,4.06,0,0,0,1-.42,3,3,0,0,0,1.28-1.55,3.43,3.43,0,0,0,.18-1.15v0a3.3,3.3,0,0,0-.22-1.24,3,3,0,0,0-.62-1,3.51,3.51,0,0,0-1.26-.76,5.36,5.36,0,0,0-1.78-.28h-4.09v10.62h1.42v-3.88h2.24l3.06,3.88h1.66l-3.24-4.11Zm-4.09-.88v-4.29h2.51a3,3,0,0,1,1.87.53,1.91,1.91,0,0,1,.71,1.59v0a2,2,0,0,1-.72,1.58,2.91,2.91,0,0,1-1.85.56Z" transform="translate(-25.42 -19.86)"/><path class="cls-1" d="M273.46,118.28a4,4,0,0,0,1-.42,2.9,2.9,0,0,0,.77-.66,3.38,3.38,0,0,0,.51-.89,3.43,3.43,0,0,0,.18-1.15v0a3.3,3.3,0,0,0-.22-1.24,3.2,3.2,0,0,0-.62-1,3.6,3.6,0,0,0-1.26-.76,5.36,5.36,0,0,0-1.78-.28H268v10.62h1.42v-3.88h2.24l3.06,3.88h1.66l-3.24-4.11Zm-4.08-.88v-4.29h2.51a3,3,0,0,1,1.87.53,1.9,1.9,0,0,1,.7,1.59v0a1.93,1.93,0,0,1-.72,1.58,2.86,2.86,0,0,1-1.84.56Z" transform="translate(-25.42 -19.86)"/><path class="cls-1" d="M299.26,117.64a3.87,3.87,0,0,0-1.05-.61,10.94,10.94,0,0,0-1.52-.48c-.54-.13-1-.26-1.34-.38a3.47,3.47,0,0,1-.88-.4,1.46,1.46,0,0,1-.5-.56,1.57,1.57,0,0,1-.13-.67v0a1.42,1.42,0,0,1,.57-1.15,2.4,2.4,0,0,1,1.51-.44,4.36,4.36,0,0,1,1.61.32,6.64,6.64,0,0,1,1.35.73l.75-1.06a6,6,0,0,0-1.57-.85,6.06,6.06,0,0,0-2.11-.35,4.39,4.39,0,0,0-1.44.23,3.44,3.44,0,0,0-1.12.61,2.76,2.76,0,0,0-1,2.13v0a3,3,0,0,0,.22,1.2,2.26,2.26,0,0,0,.65.82,4.31,4.31,0,0,0,1.09.6,13.43,13.43,0,0,0,1.56.46,11.85,11.85,0,0,1,1.3.36,2.91,2.91,0,0,1,.83.42,1.39,1.39,0,0,1,.47.54,1.59,1.59,0,0,1,.12.64v0A1.43,1.43,0,0,1,298,121a2.67,2.67,0,0,1-1.59.43,4.84,4.84,0,0,1-2-.39,7.07,7.07,0,0,1-1.5-1l-.84,1a6.47,6.47,0,0,0,1.9,1.12,6.78,6.78,0,0,0,2.38.42,5.29,5.29,0,0,0,1.53-.21,3.45,3.45,0,0,0,1.16-.6,2.67,2.67,0,0,0,.74-1,3,3,0,0,0,.27-1.29v0a2.67,2.67,0,0,0-.21-1.1A2.41,2.41,0,0,0,299.26,117.64Z" transform="translate(-25.42 -19.86)"/></svg>